<svg width="240" height="240" version="1.1" viewBox="0 0 63.5 63.5" xmlns="http://www.w3.org/2000/svg">
 <g transform="translate(-102.37 -95.61)">
  <path d="m134.12 95.61a31.75 31.75 0 0 0-31.75 31.75 31.75 31.75 0 0 0 31.75 31.75 31.75 31.75 0 0 0 31.75-31.75 31.75 31.75 0 0 0-31.75-31.75zm0 3.8607a27.568 27.568 0 0 1 27.567 27.568 27.568 27.568 0 0 1-27.567 27.567 27.568 27.568 0 0 1-27.568-27.567 27.568 27.568 0 0 1 27.568-27.568z" style="fill:#f00;stroke-dashoffset:150.01;stroke-linecap:round;stroke-linejoin:round;stroke-width:1.0001"/>
  <path d="m134.12 105.92a21.442 21.442 0 0 0-21.442 21.442 21.442 21.442 0 0 0 21.442 21.442 21.442 21.442 0 0 0 21.442-21.442 21.442 21.442 0 0 0-21.442-21.442zm0 2.6074a18.618 18.618 0 0 1 18.618 18.618 18.618 18.618 0 0 1-18.618 18.618 18.618 18.618 0 0 1-18.618-18.618 18.618 18.618 0 0 1 18.618-18.618z" style="fill:#f00;stroke-dashoffset:150.01;stroke-linecap:round;stroke-linejoin:round;stroke-width:.67543"/>
  <circle cx="134.12" cy="127.36" r="7.9516" style="fill:#f00;stroke-dashoffset:150.01;stroke-linecap:round;stroke-linejoin:round;stroke-width:1.0001"/>
  <path d="m134.12 113.47a13.893 13.893 0 0 0-13.893 13.893 13.893 13.893 0 0 0 13.893 13.893 13.893 13.893 0 0 0 13.893-13.893 13.893 13.893 0 0 0-13.893-13.893zm0 1.6894a12.063 12.063 0 0 1 12.063 12.063 12.063 12.063 0 0 1-12.063 12.063 12.063 12.063 0 0 1-12.063-12.063 12.063 12.063 0 0 1 12.063-12.063z" style="fill:#f00;stroke-dashoffset:150.01;stroke-linecap:round;stroke-linejoin:round;stroke-width:.43764"/>
 </g>
</svg>
