<svg width="122.25" height="107.87" version="1.1" viewBox="0 0 32.347 28.541" xmlns="http://www.w3.org/2000/svg">
 <g transform="translate(64.596 -4.7748)">
  <g transform="rotate(255 -27.792 6.7294)">
   <path d="m-23.102-11.431c-0.1209-2.9168-1.1408-5.7893-2.3914-7.0399-1.2506-1.2506-3.9201-3.6556-5.4516-4.6436 0 0-4.4569-5.5055-5.3227-6.8042-0.8658-1.2987-2.0965-3.9735-3.487-4.4926-1.4546-0.54308-3.9204-0.84645-4.8824 1.8471-0.962 2.6936 1.443 5.0024 1.443 5.0024l3.8961 4.4252s-3.3189 0.5291-4.0404 3.367c0 0-2.3569 0.2886-3.0303 3.4632 0 0-2.2607 1.2025-2.3569 3.4151 0 0 0.0962 2.0202 0.8177 2.9822 0.7215 0.962 2.6455 3.367 5.1467 3.4632 0 0 4.0774 5.2432 7.2381 5.094 0 0 4.1704-0.31436 5.8193-1.16 1.6067-0.82395 4.8991-4.1421 5.4269-4.9073 0.61993-0.89878 1.2452-2.7681 1.175-4.0119z" style="fill:#fff;stroke-width:.26458px;stroke:#000"/>
   <path d="m-46.368-16.306s-0.07684 2.5141 0.64188 3.4077c0.71872 0.89355 1.6123 1.8842 2.3698 2.2533 0.75757 0.36908 1.6705 1.1461 2.5835 1.3015 0.91297 0.1554 2.2339 0.1554 2.6029 0.0777 0.36908-0.0777 1.0295-0.60217 1.0684-0.6993" style="fill:none;stroke-width:.26458px;stroke:#000"/>
   <path d="m-42.761-6.4454s1.0359-0.45048 1.405-0.91668c0.36908-0.4662 0.71872-1.4763 0.60217-1.9231" style="fill:none;stroke-width:.26458px;stroke:#000"/>
   <path d="m-26.265-18.344s-2.4008-2.5444-6.5867-1.4979c-4.1859 1.0465-4.8631 1.1901-7.0586 4.0013 0 0-2.4199 4.0359 0.98225 5.7142 0 0 2.3624 0.68782 3.8398-0.91268 0 0 0.95518-0.82289 1.0764-1.1016l1.4419 0.03635s-0.17172 0.70225-0.11648 1.1506c0 0 0.29356 2.6291 1.7512 3.6009" style="fill:none;stroke-width:.26458px;stroke:#000"/>
   <path d="m-43.338-19.769s-0.02 5.1599 2.5901 5.911" style="fill:none;stroke-width:.26458px;stroke:#000"/>
   <path d="m-39.298-23.136 3.432 3.7761" style="fill:none;stroke-width:.26458px;stroke:#000"/>
   <path d="m-35.144-1.2754s0.82258 1.7217 2.1385 1.8294c1.3758 0.11256 5.3836-1.8892 6.4339-2.7281 0 0 3.7447-2.9567 4.5087-5.4575 0.75491-2.4712 0.09784-3.9952 0.09784-3.9952s-0.08154-0.9458-1.0762-1.2556l-0.15746-0.0069 0.09747 1.4588s-0.10742 2.0101-0.57378 2.9273-1.5545 2.5339-2.8137 3.3888c0 0-2.3074 2.4591-4.135 3.0002-1.9407 0.57457-4.5236 0.73062-4.5236 0.73062z" style="fill:#fff;stroke-width:.26458px;stroke:#000"/>
  </g>
 </g>
</svg>
