{
  "accessors": [
    {
      "bufferView": 2,
      "componentType": 5126,
      "count": 626,
      "max": [
        1.3175393342971802,
        1.3175398111343384,
        2.4378421306610107
      ],
      "min": [
        -1.3175394535064697,
        -1.3175396919250488,
        -0.64635568857192993
      ],
      "type": "VEC3"
    },
    {
      "bufferView": 2,
      "byteOffset": 7512,
      "componentType": 5126,
      "count": 626,
      "max": [
        1,
        1,
        0.92210692167282104
      ],
      "min": [
        -1,
        -1,
        -1
      ],
      "type": "VEC3"
    },
    {
      "bufferView": 1,
      "componentType": 5126,
      "count": 626,
      "max": [
        1.0000002384185791,
        0.68750011920928955
      ],
      "min": [
        0,
        0
      ],
      "type": "VEC2"
    },
    {
      "bufferView": 0,
      "componentType": 5125,
      "count": 3360,
      "max": [
        625
      ],
      "min": [
        0
      ],
      "type": "SCALAR"
    },
    {
      "bufferView": 2,
      "byteOffset": 15024,
      "componentType": 5126,
      "count": 197,
      "max": [
        0.83146953582763672,
        0.83146971464157104,
        1.361285924911499
      ],
      "min": [
        -0.83146947622299194,
        -0.83146965503692627,
        0.91685599088668823
      ],
      "type": "VEC3"
    },
    {
      "bufferView": 2,
      "byteOffset": 17388,
      "componentType": 5126,
      "count": 197,
      "max": [
        0.71015214920043945,
        0.71015214920043945,
        1
      ],
      "min": [
        -0.71015214920043945,
        -0.71015214920043945,
        0.7040482759475708
      ],
      "type": "VEC3"
    },
    {
      "bufferView": 1,
      "byteOffset": 5008,
      "componentType": 5126,
      "count": 197,
      "max": [
        1.0000002384185791,
        1
      ],
      "min": [
        0,
        0.68749994039535522
      ],
      "type": "VEC2"
    },
    {
      "bufferView": 0,
      "byteOffset": 13440,
      "componentType": 5125,
      "count": 864,
      "max": [
        196
      ],
      "min": [
        0
      ],
      "type": "SCALAR"
    }
  ],
  "asset": {
    "extras": {
      "author": "Unlostly (https://sketchfab.com/Unlostly)",
      "license": "CC-BY-4.0 (http://creativecommons.org/licenses/by/4.0/)",
      "source": "https://sketchfab.com/3d-models/super-mario-pipe-9f300ce966154eaab90b5156ce6865bc",
      "title": "Super Mario Pipe"
    },
    "generator": "Sketchfab-10.6.0",
    "version": "2.0"
  },
  "bufferViews": [
    {
      "buffer": 0,
      "byteLength": 16896,
      "byteOffset": 0,
      "name": "floatBufferViews",
      "target": 34963
    },
    {
      "buffer": 0,
      "byteLength": 6584,
      "byteOffset": 16896,
      "byteStride": 8,
      "name": "floatBufferViews",
      "target": 34962
    },
    {
      "buffer": 0,
      "byteLength": 19752,
      "byteOffset": 23480,
      "byteStride": 12,
      "name": "floatBufferViews",
      "target": 34962
    }
  ],
  "buffers": [
    {
      "byteLength": 43232,
      "uri": "scene.bin"
    }
  ],
  "materials": [
    {
      "doubleSided": true,
      "emissiveFactor": [
        0,
        0,
        0
      ],
      "name": "Material.001",
      "pbrMetallicRoughness": {
        "baseColorFactor": [
          0.041900699999999999,
          0.80000000000000004,
          0,
          1
        ],
        "metallicFactor": 0,
        "roughnessFactor": 0.83371932478364341
      }
    },
    {
      "doubleSided": true,
      "emissiveFactor": [
        0,
        0,
        0
      ],
      "name": "Material.002",
      "pbrMetallicRoughness": {
        "baseColorFactor": [
          0,
          0,
          0,
          1
        ],
        "metallicFactor": 0,
        "roughnessFactor": 1
      }
    }
  ],
  "meshes": [
    {
      "name": "Sphere_Material.001_0",
      "primitives": [
        {
          "attributes": {
            "NORMAL": 1,
            "POSITION": 0,
            "TEXCOORD_0": 2
          },
          "indices": 3,
          "material": 0,
          "mode": 4
        }
      ]
    },
    {
      "name": "Sphere_Material.002_0",
      "primitives": [
        {
          "attributes": {
            "NORMAL": 5,
            "POSITION": 4,
            "TEXCOORD_0": 6
          },
          "indices": 7,
          "material": 1,
          "mode": 4
        }
      ]
    }
  ],
  "nodes": [
    {
      "children": [
        1
      ],
      "name": "RootNode (gltf orientation matrix)",
      "rotation": [
        -0.70710678118654746,
        -0,
        -0,
        0.70710678118654757
      ]
    },
    {
      "children": [
        2
      ],
      "name": "RootNode (model correction matrix)"
    },
    {
      "children": [
        3
      ],
      "matrix": [
        1,
        0,
        0,
        0,
        0,
        0,
        1,
        0,
        0,
        -1,
        0,
        0,
        0,
        0,
        0,
        1
      ],
      "name": "7bff6618476d44c9bc5d3380f7a0834e.fbx"
    },
    {
      "children": [
        4,
        7,
        9
      ],
      "name": "RootNode"
    },
    {
      "children": [
        5
      ],
      "matrix": [
        -29.08647719990347,
        -5.5189064575668629,
        -95.517119101714371,
        0,
        56.639309131094492,
        79.467234285632031,
        -21.839123978419661,
        0,
        77.110087759933748,
        -60.452463565620441,
        -19.988346967737169,
        0,
        407.62454223632812,
        590.38623046875,
        -100.54539489746094,
        1
      ],
      "name": "Light"
    },
    {
      "children": [
        6
      ],
      "matrix": [
        1,
        0,
        0,
        0,
        0,
        2.2204460492503131e-16,
        1,
        0,
        0,
        -1,
        2.2204460492503131e-16,
        0,
        0,
        0,
        0,
        1
      ],
      "name": ""
    },
    {
      "name": ""
    },
    {
      "children": [
        8
      ],
      "matrix": [
        -64.54574487117813,
        -46.305484456721111,
        -60.742480425589648,
        0,
        -33.623800954158376,
        88.632866423998749,
        -31.837925073438523,
        0,
        68.580512216737887,
        -0.12609518687990151,
        -72.778413311185261,
        0,
        824.474609375,
        794.4168701171875,
        804.3348388671875,
        1
      ],
      "name": "Camera"
    },
    {
      "name": ""
    },
    {
      "children": [
        10,
        11
      ],
      "matrix": [
        100,
        0,
        0,
        0,
        0,
        -1.6292067939183141e-05,
        -99.999999999998678,
        0,
        0,
        99.999999999998678,
        -1.6292067939183141e-05,
        0,
        0,
        0,
        0,
        1
      ],
      "name": "Sphere"
    },
    {
      "mesh": 0,
      "name": "Sphere_Material.001_0"
    },
    {
      "mesh": 1,
      "name": "Sphere_Material.002_0"
    }
  ],
  "scene": 0,
  "scenes": [
    {
      "name": "OSG_Scene",
      "nodes": [
        0
      ]
    }
  ]
}

