<svg width="397.24mm" height="224.83mm" version="1.1" viewBox="0 0 397.24 224.83" xmlns="http://www.w3.org/2000/svg">
 <g transform="translate(226.86 165.41)">
  <text style="font-family:'Arial Black';font-size:12.7px;line-height:1.25;shape-inside:url(#rect839);white-space:pre" xml:space="preserve"/>
  <g transform="translate(-135.22 -70.876)">
   <circle cx="108.49" cy="86.081" r="42.893" style="fill:#ff0404;stroke-width:2.6458;stroke:#790000"/>
   <g transform="translate(-2.6237 -53.054)">
    <text x="88.38829" y="131.3595" style="font-family:'Arial Black';font-size:12.7px;line-height:1.25;stroke-width:.26458" xml:space="preserve"><tspan x="88.38829" y="131.3595" style="stroke-width:.26458">PRESS</tspan></text>
    <text x="91.853142" y="154.1064" style="font-family:'Arial Black';font-size:12.7px;line-height:1.25;stroke-width:.26458" xml:space="preserve"><tspan x="91.853142" y="154.1064" style="stroke-width:.26458">PLAY</tspan></text>
    <text x="100.99777" y="143.32295" style="font-family:'Arial Black';font-size:12.7px;line-height:1.25;stroke-width:.26458" xml:space="preserve"><tspan x="100.99777" y="143.32295" style="stroke-width:.26458">TO</tspan></text>
   </g>
   <path d="m97.235 53.182c-10.725 2.4818-14.271 11.523-14.271 11.523l-5.0361-1.8534c4.6992-9.2026 19.188-14.098 19.188-14.098z" style="fill:#ff6969"/>
  </g>
  <text x="-75.379425" y="-111.48637" style="font-family:'Arial Black';font-size:33.465px;line-height:1.25;stroke-width:.69718" xml:space="preserve"><tspan x="-75.379425" y="-111.48637" style="stroke-width:.69718">Contraptions</tspan></text>
  <path d="m-10.746-156.49s-5.0467-2.1729-7.1846-2.4533c0 0-4.3458-0.56075-5.5374 1.542 0 0 2.9016-0.91108 4.8916 0.92737 0 0-1.6868 1.7437-4.8331 0.92871 0 0 1.5216 4.5164 12.663-0.94486z" style="fill:#de1500"/>
  <path d="m-21.367-156.51s-1.2344-0.55333-1.8728-0.32986c0 0-0.8832 0.15961 0.0107 0.73422 0 0 0.59586 0.32987 1.8621-0.40436z" style="fill:#fb0"/>
  <path d="m-14.191-156.5-6.5976-2.3082s-2.0538 0.30898-2.5445 1.3086c0 0 3.3806-0.78153 4.8346 1.0542 0 0-1.763 1.7448-4.7437 1.0178 0 0 0.29079 0.89058 1.9993 1.3995z" style="fill:#d84e00"/>
  <g transform="matrix(.55002 0 0 .55002 -172.98 -19.012)">
   <path d="m214.68-222.05-0.0473 59.668h30.138l-0.12825-59.635z" style="fill:#e60000"/>
   <path d="m223.63-214.18h-3.6951l0.0944 43.246 3.8211 0.0967z" style="fill:#ff6b6b"/>
   <path d="m230.28-205.95 11.367 11.195s1.3348 1.1195 0.0861 2.1959c-1.2487 1.0764-11.066 10.98-11.066 10.98s-1.3778 1.0334-2.3682 0c-0.99032-1.0334-11.023-11.152-11.023-11.152s-0.86115-0.99032-0.12917-1.8515c0.73198-0.86116 11.238-11.238 11.238-11.238s0.99032-0.86115 1.8945-0.12917z" style="fill:#fff"/>
   <path d="m214.63-162.39s-4.4154 0.89109-1.1035 3.6365h31.681s3.6532-2.3051-0.43946-3.6365z" style="fill:#e50000;stroke-width:.26458px;stroke:#900"/>
   <path d="m214.68-222.05 29.963 0.0331-0.0109-0.3621 1.1693-0.0688s2.3386-2.4761-0.24073-3.5766l-31.914-0.0344s-3.611 2.3042 0.99732 3.5422z" style="fill:#e50000;stroke-width:.26458px;stroke:#900"/>
   <path d="m228.64-190.32s-1.1045-0.53732-1.194-1.0448c-0.0896-0.50747-0.0597-2.806-0.0597-2.806s0.80599 0.71643 0.89554 0.86568c0.0896 0.14926 0.44777 0.0597 0.44777 0.0597l0.14925-0.62688 0.17911 0.11941v-0.77613l0.20896-0.0597v-0.74628s-0.0299-0.47762 0.29851 0.1194c0.32837 0.59703 0.71643 0.89554 0.71643 0.89554l0.17911 0.59702 0.1194 0.95524 0.65673-0.32836 0.20896-0.20896 0.0597-0.38807 0.20896 0.59703s-0.17911 2.209-0.98509 2.7463l1.4328-0.14926s0.23881 0 0.80598-0.50747 1.0149-1.4627 1.0149-1.4627 0.86569-1.9403 0.65673-3.0747c0 0-0.89554 0.38807-1.1344 0.38807 0 0-0.29851 0.50747-0.29851-2.0299l-0.0896-0.56718-0.32837-0.41791-0.0597-0.59703-0.29851 0.41792-0.29851-0.0299-0.0299 0.41791h-0.0896l-0.29851 0.23881s-0.20896-0.0896-0.11941-0.74627c0 0-2.6268-3.0747-2.3282-3.4627 0 0-2.1493 2.8956-1.3134 3.821l-0.32836 0.0597s-0.65673-0.23881-0.80599-0.65673l-0.26866 0.23881-0.23881 0.0896 0.11941 0.41792-0.26866-0.0299s-0.17911 2.0597 0.23881 2.3284l-0.53733 1e-5 -0.47761-0.26866-0.47762-0.71643s-0.71643 2-0.41792 2.597c0 0 0 0.59703 0.29851 0.74628 0 0 0.2388 3.5523 3.8508 2.9851z" style="fill:#e50000"/>
   <path d="m226.13-188.48 6.7291 0.0216s0.88426 0.64702 0.0863 0.90583l-6.8154 1e-5s-0.84113-0.38822 0-0.9274z" style="fill:#e50000"/>
   <path d="m218.3-230.07 22.412 0.19363-0.0484-3.6305s-2.4108-3.7376-5.0248-3.8828l-12.498 0.10714s-4.405 1.2586-4.7438 3.5337z" style="fill:#666;stroke-width:.26458px;stroke:#c0c0c0"/>
   <path d="m215.93-226.14 27.35-0.0484s-0.62929-3.5821-2.2751-3.4853l-22.848-0.29044s-3.7273 2.1299-2.2267 3.8241z" style="fill:#666;stroke-width:.26458px;stroke:#bfbfbf"/>
   <path d="m248.78-253.19 20.567-0.1251v7.1059l-20.592 0.05z" style="fill:#666"/>
   <path d="m248.87-249.82 20.467-0.0385-0.0769 2.0775-20.391-0.0769z" style="fill:#8d8d8d"/>
   <path d="m223.92-243.85-0.1254 6.6658 11.16-0.0962-0.0627-6.8309-11.066-0.0915z" style="fill:#363636"/>
   <path d="m234.97-244.11 9.6869-0.62699 3.6678-0.18809s0.78373-0.21944 0.78373-0.97182v-7.9627s-0.15675-1.0032-0.97182-1.0345c-0.81508-0.0314-25.518-0.84643-25.518-0.84643s-4.2008 0.56428-4.4202 3.3857c0 0-0.31349 4.7337 0.0314 5.298 0.34484 0.56428 1.4107 1.9436 2.3825 2.3512 0.97183 0.40754 3.323 0.59564 3.323 0.59564z" style="fill:#293757"/>
   <path d="m218.36-252.75-0.029 5.8595-3.887-0.087s-1.5084-0.63816-1.7404-1.7694 0.029-2.4656 0.029-2.4656 0.46412-1.4794 1.9435-1.5084c1.4794-0.029 3.6839-0.029 3.6839-0.029z" style="fill:#e50000"/>
   <path d="m234.91-244.26 0.0403 3.0344 5.4219-0.0203s2.1042 6.1509 5.9486 6.7174c0 0 1.5782 0.24279 1.0521-1.2545 0 0-3.1159-2.6708-3.6824-6.3128l0.0204-2.5896z" style="fill:#e50000"/>
   <path d="m239-247.39c0.5344 1.0688 1.5564 0.0597 1.5564 0.0597l-0.14391-5.2285s-0.5727-1.1676-1.5142 3e-3z" style="fill:#100909"/>
   <path d="m242.02-247.21c0.5344 1.0688 1.5564 0.0597 1.5564 0.0597l-0.14391-5.2285s-0.5727-1.1676-1.5142 3e-3z" style="fill:#100909"/>
   <path d="m244.95-247.18c0.5344 1.0688 1.5564 0.0597 1.5564 0.0597l-0.14391-5.2285s-0.5727-1.1676-1.5142 3e-3z" style="fill:#100909"/>
   <path d="m250.12-252.03 0.0382 1.0305h17.976v-1.145l-18.014-0.19083z" style="fill:#cecece"/>
   <path d="m222.31-235.12 14.329-0.0384s1.2293 0.7299 0.0768 1.8056l-14.406-0.11525s-1.3062-0.76832 0-1.6519z" style="fill:#ababab"/>
   <path d="m218.48-230.18 0.0281-1.4044 22.106 0.30898-0.0281 1.3202z" style="fill:#444"/>
   <path d="m215.9-227.68 26.909 0.0562 0.30898 1.3202-27.049 0.0281s-0.75839-0.47751-0.16853-1.4044z" style="fill:#444"/>
  </g>
  <g transform="matrix(.58962 0 0 .58962 -94.287 -13.248)">
   <path d="m348.85-228.45 2.1512 7.1452 4.5915 1.5678 6.3834-4.9275 4.9275 3.3596-2.7997 7.3912 2.7997 4.0316 7.9512-0.22397 2.2398 5.5994-6.7193 4.3676v4.8155l6.4953 4.5915-1.7918 5.0395-8.0632 0.11199-3.0237 3.9196 2.9117 7.6152-5.0395 3.3596-6.4953-4.5915-4.8155 1.3439-2.3518 7.3912h-5.9354l-2.3518-7.6152-4.8155-1.4558-6.1594 4.7035-4.9275-2.9117 2.5757-7.7272-2.5757-4.1436-8.1752 0.33597-1.7918-5.8234 6.7193-4.3676-0.11199-4.5915-6.3833-4.4795 1.5678-5.2635 7.8392-0.11199 3.0237-3.9196-2.3518-7.2792 4.5915-3.3597 6.6073 4.5915 5.1515-1.4558 2.0158-7.6152h5.8234z" style="fill:#7e7979"/>
   <path d="m346.3-183.01c-18.366-0.22397-15.23-18.366-15.23-18.366 1.6798-9.295 13.056-11.105 13.056-11.105s15.501-0.98944 16.173 15.585c0 0-0.33597 12.991-13.999 13.887z" style="fill:#fff;stroke-width:.26458px;stroke:#515151"/>
  </g>
  <g transform="matrix(.23913 0 0 .23913 -30.655 -168.2)">
   <path d="m420.39 11.648s-18.657 21.699-18.049 24.133h36.503s-15.615-24.336-18.454-24.133z" style="fill:#f00"/>
   <path d="m452.77 102.6s18.151 23.973 19.521 39.271c0 0 5.1372 38.129-12.443 59.02 0 0-7.9912-22.147-10.503-22.033 0 0-7.5345-8.562-11.644-7.4204 0 0 19.407-64.386 15.069-68.838z" style="fill:#f00"/>
   <path d="m402.77 171.09c-6.4885-0.97477-11.821 7.3968-11.821 7.3968-2.5961 1.2297-10.658 21.999-10.658 21.999-21.042-27.874-11.341-63.263-11.341-63.263 1.6397-12.024 18.354-35.394 18.354-35.394s7.0883 62.22 15.466 69.262z" style="fill:#f00"/>
   <path d="m402.34 35.781s-19.862 43.606-15.961 66.2c0 0 4.1692 49.761 15.466 69.262l37.253 0.40347s16.542-49.626 15.735-69.262c0 0-6.0237-55.339-15.99-66.604z" style="fill:#ccc"/>
   <circle cx="421.1" cy="68.348" r="16.844" style="fill:#80cbe0;opacity:.87138;stroke-width:3.187;stroke:#5e2a6f"/>
   <path d="m407.35 181.76 26.525 0.0624 1.8099 10.173 0.93617 11.921 0.56171 19.036s-1.7139 37.297-4.0288 43.47c0 0-8.2952 36.557-12.346 42.827 0 0-11.961-28.165-12.443-39.354 0 0-4.1476-22.667-4.0512-27.779 0 0-1.2539-14.854-0.77165-22.86 0 0 2.5038-35.925 3.808-37.495z" style="fill:#de3600"/>
   <path d="m401.84 171.24 3.7858 10.603 29.762 0.11316 3.4514-10.354z" style="fill:#900"/>
   <path d="m412.98 181.88 15.524 0.0402 1.0593 6.5434 0.5479 7.6674 0.32874 12.244s-1.0031 23.989-2.3579 27.96c0 0-4.8548 23.513-7.2258 27.546 0 0-7-18.116-7.2823-25.313 0 0-2.4274-14.58-2.371-17.868 0 0-0.73387-9.5543-0.45162-14.704 0 0 1.4654-23.107 2.2286-24.117z" style="fill:#de6600"/>
   <path d="m418.1 181.87 5.7053 0.0134 0.38931 2.1882 0.20136 2.564 0.12082 4.0944s-0.36864 8.0223-0.86657 9.3501c0 0-1.7842 7.8631-2.6556 9.2117 0 0-2.5726-6.0581-2.6764-8.4648 0 0-0.89212-4.8755-0.87137-5.9751 0 0-0.26971-3.195-0.16598-4.917 0 0 0.53854-7.7273 0.81907-8.0649z" style="fill:#ffea38"/>
   <path d="m406.94 62.615 16.812-9.3442s3.0045 0.6599 3.5312 1.1068l-21.286 11.811s0.61976-2.7172 0.94286-3.574z" style="fill:#d7eff5"/>
   <path d="m405.97 68.192 22.781-13.037s3.018 1.9081 4.0153 3.3442l-26.231 14.38s-1.109-4.7303-0.56603-4.6869z" style="fill:#d7eff5"/>
  </g>
  <g transform="translate(-245 -79.239)">
   <path d="m279.01-74.9 0.13824 40.919s-0.46079 2.3501-2.5804 2.7648l-17.234 0.09216s-2.2118-0.27648-2.4883-2.7648l-0.0922-41.149s-0.36864-1.3824 2.5804-2.903l17.096 0.04608s1.9353 0.55296 2.5804 2.9952z" style="fill:#3e3e3e"/>
   <path d="m258.59-55.132 19.676-0.04608-0.0461 0.50688-19.676 0.09216z" style="fill:#090909"/>
   <circle cx="262.16" cy="-72.897" r="1.647" style="fill:#fff"/>
   <circle cx="274.04" cy="-72.978" r="1.647" style="fill:#fff"/>
   <circle cx="268.1" cy="-66.796" r="1.647" style="fill:#fff"/>
   <circle cx="262.28" cy="-60.654" r="1.647" style="fill:#fff"/>
   <circle cx="268.26" cy="-43.45" r="1.647" style="fill:#fff"/>
   <circle cx="274" cy="-51.259" r="1.647" style="fill:#fff"/>
   <circle cx="274.04" cy="-60.492" r="1.647" style="fill:#fff"/>
   <circle cx="262.06" cy="-34.864" r="1.647" style="fill:#fff"/>
  </g>
  <g transform="translate(-330.78 5.9827)">
   <path d="m485.48-164.57 15.496 20.856-1.4328 0.95523-13.957-18.574-14.063 18.68-1.539-0.95522z" style="fill:#86400a;stroke-width:.26458px;stroke:#000"/>
   <path d="m472.53-143.66 2.6004 17.141 20.59-0.1592 2.7595-17.3-12.896-17.247z" style="fill:#f4a76c;stroke-width:.26458px;stroke:#000"/>
   <path d="m482.86-147.75 5.3023 0.0747-0.11203-5.041s-2.5392-4.7422-5.153 0.0373z" style="fill:#86400a"/>
   <path d="m485.03-154.65-0.0365 6.8928 0.92998 0.0182-0.0456-6.8746s-0.42252-0.19413-0.84791-0.0364z" style="fill:#9a5d00"/>
   <path d="m483.54-126.61 0.0694 9.9287" style="fill:none;stroke-width:.75;stroke:#000"/>
   <path d="m487.25-126.68 0.0694 2.6037" style="fill:none;stroke-width:.75;stroke:#000"/>
   <path d="m484.05-114.97c0.52376 0.84383 0.99239 2.5639 0.99239 2.5639 0.10417 0.59017-0.0694 2.1871-0.0694 2.1871-0.24301 1.3192-1.3539 3.1244-1.3539 3.1244-0.93731-1.0762-1.5275-3.541-1.5275-3.541s-0.0347-0.83318 0.0347-1.6316c0.0694-0.79845 1.0762-2.6731 1.0762-2.6731s0.54745 0.16439 0.84752-0.0297z" style="fill:#c98d0f"/>
   <circle cx="483.62" cy="-115.79" r="1.0415" style="fill:#3e3e3e"/>
   <path d="m484.05-114.78" style="fill:none;stroke-width:.26458px;stroke:#000"/>
   <path d="m483.84-113.06s-0.38108-0.42226-0.69006-0.0103l0.0412 4.0063s0.42226 0.64884 0.72093 0z" style="fill:#d0c900"/>
   <circle cx="485.52" cy="-137.76" r="5.9743" style="fill:#f3f3f3"/>
   <circle cx="485.36" cy="-137.59" r="1.1272" style="fill:#3e3e3e"/>
   <circle cx="484.05" cy="-151.18" r=".45281"/>
   <circle cx="486.88" cy="-151.21" r=".45281"/>
   <path d="m487.74-122.3c0.52376 0.84383 0.99239 2.5639 0.99239 2.5639 0.10417 0.59017-0.0694 2.1871-0.0694 2.1871-0.24301 1.3192-1.3539 3.1244-1.3539 3.1244-0.93731-1.0762-1.5275-3.541-1.5275-3.541s-0.0347-0.83318 0.0347-1.6316c0.0694-0.79845 1.0762-2.6731 1.0762-2.6731s0.54745 0.16439 0.84752-0.0297z" style="fill:#c98d0f"/>
   <path d="m487.74-122.17" style="fill:none;stroke-width:.26458px;stroke:#000"/>
   <circle cx="487.25" cy="-123.14" r="1.0415" style="fill:#3e3e3e"/>
   <path d="m487.53-120.46s-0.38108-0.42226-0.69006-0.0103l0.0412 4.0063s0.42226 0.64884 0.72093 0z" style="fill:#d0c900"/>
   <text x="488.33765" y="-143.24747" style="font-family:'Arial Black';font-size:2.1167px;line-height:1.25;stroke-width:.26458" xml:space="preserve"><tspan x="488.33765" y="-143.24747" style="font-size:2.1167px;stroke-width:.26458">1</tspan></text>
   <text x="491.01373" y="-140.75983" style="font-family:'Arial Black';font-size:2.1167px;line-height:1.25;stroke-width:.26458" xml:space="preserve"><tspan x="491.01373" y="-140.75983" style="font-size:2.1167px;stroke-width:.26458">2</tspan></text>
   <text x="491.69226" y="-137.48174" style="font-family:'Arial Black';font-size:2.1167px;line-height:1.25;stroke-width:.26458" xml:space="preserve"><tspan x="491.69226" y="-137.48174" style="font-size:2.1167px;stroke-width:.26458">3</tspan></text>
   <text x="491.14661" y="-133.94092" style="font-family:'Arial Black';font-size:2.1167px;line-height:1.25;stroke-width:.26458" xml:space="preserve"><tspan x="491.14661" y="-133.94092" style="font-size:2.1167px;stroke-width:.26458">4</tspan></text>
   <text x="488.7865" y="-130.74466" style="font-family:'Arial Black';font-size:2.1167px;line-height:1.25;stroke-width:.26458" xml:space="preserve"><tspan x="488.7865" y="-130.74466" style="font-size:2.1167px;stroke-width:.26458">5</tspan></text>
   <text x="484.97681" y="-129.53444" style="font-family:'Arial Black';font-size:2.1167px;line-height:1.25;stroke-width:.26458" xml:space="preserve"><tspan x="484.97681" y="-129.53444" style="font-size:2.1167px;stroke-width:.26458">6</tspan></text>
   <text x="480.8454" y="-130.8468" style="font-family:'Arial Black';font-size:2.1167px;line-height:1.25;stroke-width:.26458" xml:space="preserve"><tspan x="480.8454" y="-130.8468" style="font-size:2.1167px;stroke-width:.26458">7</tspan></text>
   <text x="478.38251" y="-133.20987" style="font-family:'Arial Black';font-size:2.1167px;line-height:1.25;stroke-width:.26458" xml:space="preserve"><tspan x="478.38251" y="-133.20987" style="font-size:2.1167px;stroke-width:.26458">8</tspan></text>
   <text x="477.40656" y="-136.67416" style="font-family:'Arial Black';font-size:2.1167px;line-height:1.25;stroke-width:.26458" xml:space="preserve"><tspan x="477.40656" y="-136.67416" style="font-size:2.1167px;stroke-width:.26458">9</tspan></text>
   <text x="477.2421" y="-140.55724" style="font-family:'Arial Black';font-size:2.1167px;line-height:1.25;stroke-width:.26458" xml:space="preserve"><tspan x="477.2421" y="-140.55724" style="font-size:2.1167px;stroke-width:.26458">10</tspan></text>
   <text x="479.8754" y="-143.41953" style="font-family:'Arial Black';font-size:2.1167px;line-height:1.25;stroke-width:.26458" xml:space="preserve"><tspan x="479.8754" y="-143.41953" style="font-size:2.1167px;stroke-width:.26458">11</tspan></text>
   <text x="483.64066" y="-144.22308" style="font-family:'Arial Black';font-size:2.1167px;line-height:1.25;stroke-width:.26458" xml:space="preserve"><tspan x="483.64066" y="-144.22308" style="font-size:2.1167px;stroke-width:.26458">12</tspan></text>
  </g>
  <path d="m154.6-132.72 1.6038-4.2513s0.65913-0.5273 0.74699 0.28561l-1.6637 4.253s-0.29248-0.32556-0.68713-0.2873z"/>
  <path d="m154.77-130.54 1.7624 2.6435s1.182 0.74148 0.91342-0.60178l-1.9236-2.5576s-0.30087 0.50508-0.75222 0.51582z"/>
  <g transform="translate(-151.2 98.645)">
   <path d="m146.01-248.88s3.8084 1.9895 2.1031 9.8336c0 0-3.8652 7.9578-12.221 8.8673l-0.90946-0.39789s-3.4673-5.9684-3.24-10.231c0 0 0.45473-8.2989 5.3431-9.5494 0 0 6.0252-1.9326 8.9241 1.4779z" style="fill:#ff7d0e"/>
   <path d="m137.57-247.96 1.0023 1.0024s-2.3692 1.5794-2.7336 3.0677c0 0-0.75935-3.0981 1.6098-4.0701" style="fill:#ffe3b9"/>
   <path d="m135.16-229.5c-0.70873 1.2974-1.3304 2.6921-1.3839 4.1925-0.32871 3.2401-0.17696 6.552-0.45836 9.7955-0.42543 1.766-1.1803 3.5026-1.8135 5.2048-0.10334 0.85407-0.32377 1.7532-0.1124 2.6028" style="fill:none;stroke-width:.26458px;stroke:#000"/>
   <path d="m135.03-230.6 0.93374 0.39732-0.13906 1.2715-1.5496-0.69532z" style="fill:#ff7d0e"/>
  </g>
  <text x="-216.69376" y="-116.40119" style="font-family:'Brush Script MT';font-size:44.619px;line-height:1.25;stroke-width:.69718" xml:space="preserve"><tspan x="-216.69376" y="-116.40119" style="font-size:44.619px;stroke-width:.69718">Classic</tspan></text>
  <text style="font-family:'Brush Script MT';font-size:7.0556px;line-height:1.25;shape-inside:url(#rect1626);white-space:pre" xml:space="preserve"/>
  <text x="-54.13393" y="-163.50327" style="font-family:'Brush Script MT';font-size:7.0556px;line-height:1.25;stroke-width:.26458" xml:space="preserve"><tspan x="-54.13393" y="-163.50327" style="stroke-width:.26458"/></text>
  <text x="-228.4402" y="-110.18443" style="font-family:'Arial Black';font-size:33.465px;line-height:1.25;stroke-width:.26458" xml:space="preserve"><tspan x="-228.4402" y="-110.18443" style="font-size:33.465px;stroke-width:.26458">Classic</tspan></text>
 </g>
</svg>
