{
  "accessors": [
    {
      "bufferView": 2,
      "componentType": 5126,
      "count": 26,
      "max": [
        3.8232421875,
        0.73681640625,
        1.99560546875
      ],
      "min": [
        2.53076171875,
        -4.209228515625,
        -1.99560546875
      ],
      "type": "VEC3"
    },
    {
      "bufferView": 2,
      "byteOffset": 312,
      "componentType": 5126,
      "count": 26,
      "max": [
        0.99239760637283325,
        0.91308599710464478,
        0.87936931848526001
      ],
      "min": [
        0.22840674221515656,
        -0.89520764350891113,
        -0.87936931848526001
      ],
      "type": "VEC3"
    },
    {
      "bufferView": 1,
      "componentType": 5126,
      "count": 26,
      "max": [
        1,
        0.970703125
      ],
      "min": [
        0,
        0.005859375
      ],
      "type": "VEC2"
    },
    {
      "bufferView": 0,
      "componentType": 5125,
      "count": 54,
      "max": [
        25
      ],
      "min": [
        0
      ],
      "type": "SCALAR"
    },
    {
      "bufferView": 2,
      "byteOffset": 624,
      "componentType": 5126,
      "count": 309,
      "max": [
        5.402587890625,
        1.002197265625,
        3.792236328125
      ],
      "min": [
        -3.5966796875,
        -7.341552734375,
        -3.792236328125
      ],
      "type": "VEC3"
    },
    {
      "bufferView": 2,
      "byteOffset": 4332,
      "componentType": 5126,
      "count": 309,
      "max": [
        0.99907451868057251,
        0.99629902839660645,
        0.96854126453399658
      ],
      "min": [
        -0.99850213527679443,
        -0.99357038736343384,
        -0.96854126453399658
      ],
      "type": "VEC3"
    },
    {
      "bufferView": 1,
      "byteOffset": 208,
      "componentType": 5126,
      "count": 309,
      "max": [
        2.30859375,
        0.9912109375
      ],
      "min": [
        0.396484375,
        0.0068359375
      ],
      "type": "VEC2"
    },
    {
      "bufferView": 0,
      "byteOffset": 216,
      "componentType": 5125,
      "count": 714,
      "max": [
        308
      ],
      "min": [
        0
      ],
      "type": "SCALAR"
    },
    {
      "bufferView": 2,
      "byteOffset": 8040,
      "componentType": 5126,
      "count": 26,
      "max": [
        3.8232421875,
        0.73681640625,
        1.99560546875
      ],
      "min": [
        2.53076171875,
        -4.209228515625,
        -1.99560546875
      ],
      "type": "VEC3"
    },
    {
      "bufferView": 2,
      "byteOffset": 8352,
      "componentType": 5126,
      "count": 26,
      "max": [
        0.99239760637283325,
        0.91308599710464478,
        0.87936931848526001
      ],
      "min": [
        0.22840674221515656,
        -0.89520764350891113,
        -0.87936931848526001
      ],
      "type": "VEC3"
    },
    {
      "bufferView": 1,
      "byteOffset": 2680,
      "componentType": 5126,
      "count": 26,
      "max": [
        1,
        0.970703125
      ],
      "min": [
        0,
        0.005859375
      ],
      "type": "VEC2"
    },
    {
      "bufferView": 0,
      "byteOffset": 3072,
      "componentType": 5125,
      "count": 54,
      "max": [
        25
      ],
      "min": [
        0
      ],
      "type": "SCALAR"
    },
    {
      "bufferView": 2,
      "byteOffset": 8664,
      "componentType": 5126,
      "count": 309,
      "max": [
        5.402587890625,
        1.002197265625,
        3.792236328125
      ],
      "min": [
        -3.5966796875,
        -7.341552734375,
        -3.792236328125
      ],
      "type": "VEC3"
    },
    {
      "bufferView": 2,
      "byteOffset": 12372,
      "componentType": 5126,
      "count": 309,
      "max": [
        0.99907451868057251,
        0.99629902839660645,
        0.96854126453399658
      ],
      "min": [
        -0.99850213527679443,
        -0.99357038736343384,
        -0.96854126453399658
      ],
      "type": "VEC3"
    },
    {
      "bufferView": 1,
      "byteOffset": 2888,
      "componentType": 5126,
      "count": 309,
      "max": [
        2.30859375,
        0.9912109375
      ],
      "min": [
        0.396484375,
        0.0068359375
      ],
      "type": "VEC2"
    },
    {
      "bufferView": 0,
      "byteOffset": 3288,
      "componentType": 5125,
      "count": 714,
      "max": [
        308
      ],
      "min": [
        0
      ],
      "type": "SCALAR"
    }
  ],
  "asset": {
    "extras": {
      "author": "ruthromantic (https://sketchfab.com/ruthromantic)",
      "license": "CC-BY-4.0 (http://creativecommons.org/licenses/by/4.0/)",
      "source": "https://sketchfab.com/3d-models/mario-head-cap-3c395d7d3c7b432ba3d726e675cac06f",
      "title": "Mario Head Cap"
    },
    "generator": "Sketchfab-10.23.0",
    "version": "2.0"
  },
  "bufferViews": [
    {
      "buffer": 0,
      "byteLength": 6144,
      "byteOffset": 0,
      "name": "floatBufferViews",
      "target": 34963
    },
    {
      "buffer": 0,
      "byteLength": 5360,
      "byteOffset": 6144,
      "byteStride": 8,
      "name": "floatBufferViews",
      "target": 34962
    },
    {
      "buffer": 0,
      "byteLength": 16080,
      "byteOffset": 11504,
      "byteStride": 12,
      "name": "floatBufferViews",
      "target": 34962
    }
  ],
  "buffers": [
    {
      "byteLength": 27584,
      "uri": "scene.bin"
    }
  ],
  "extensionsRequired": [
    "KHR_materials_pbrSpecularGlossiness"
  ],
  "extensionsUsed": [
    "KHR_materials_pbrSpecularGlossiness"
  ],
  "images": [
    {
      "uri": "textures/mat_eye_diffuse.png"
    },
    {
      "uri": "textures/mat_head_diffuse.png"
    }
  ],
  "materials": [
    {
      "doubleSided": true,
      "emissiveFactor": [
        0,
        0,
        0
      ],
      "extensions": {
        "KHR_materials_pbrSpecularGlossiness": {
          "diffuseFactor": [
            1,
            1,
            1,
            1
          ],
          "diffuseTexture": {
            "index": 0,
            "texCoord": 0
          },
          "glossinessFactor": 0.40000000000000002,
          "specularFactor": [
            0,
            0,
            0
          ]
        }
      },
      "name": "mat_eye"
    },
    {
      "doubleSided": true,
      "emissiveFactor": [
        0,
        0,
        0
      ],
      "extensions": {
        "KHR_materials_pbrSpecularGlossiness": {
          "diffuseFactor": [
            1,
            1,
            1,
            1
          ],
          "diffuseTexture": {
            "index": 1,
            "texCoord": 0
          },
          "glossinessFactor": 0.40000000000000002,
          "specularFactor": [
            0,
            0,
            0
          ]
        }
      },
      "name": "mat_head"
    }
  ],
  "meshes": [
    {
      "primitives": [
        {
          "attributes": {
            "NORMAL": 1,
            "POSITION": 0,
            "TEXCOORD_0": 2
          },
          "indices": 3,
          "material": 0,
          "mode": 4
        }
      ]
    },
    {
      "primitives": [
        {
          "attributes": {
            "NORMAL": 5,
            "POSITION": 4,
            "TEXCOORD_0": 6
          },
          "indices": 7,
          "material": 1,
          "mode": 4
        }
      ]
    },
    {
      "primitives": [
        {
          "attributes": {
            "NORMAL": 9,
            "POSITION": 8,
            "TEXCOORD_0": 10
          },
          "indices": 11,
          "material": 0,
          "mode": 4
        }
      ]
    },
    {
      "primitives": [
        {
          "attributes": {
            "NORMAL": 13,
            "POSITION": 12,
            "TEXCOORD_0": 14
          },
          "indices": 15,
          "material": 1,
          "mode": 4
        }
      ]
    }
  ],
  "nodes": [
    {
      "children": [
        1
      ],
      "name": "RootNode (gltf orientation matrix)",
      "rotation": [
        -0.70710678118654746,
        -0,
        -0,
        0.70710678118654757
      ]
    },
    {
      "children": [
        2
      ],
      "matrix": [
        1,
        -8.0753864058975835e-32,
        1.6081226229577292e-16,
        0,
        -3.5199458345083521e-32,
        -1,
        -2.832769343193999e-16,
        0,
        1.6081226229577292e-16,
        2.832769343193999e-16,
        -1,
        0,
        7.7715611723760958e-16,
        7.7785858593415469e-05,
        -6.339423656463623,
        1
      ],
      "name": "RootNode (model correction matrix)"
    },
    {
      "children": [
        3
      ],
      "matrix": [
        1,
        0,
        0,
        0,
        0,
        -4.3711390063094768e-08,
        0.999999999999999,
        0,
        0,
        -0.999999999999999,
        -4.3711390063094768e-08,
        0,
        0,
        0,
        0,
        1
      ],
      "name": "Collada visual scene group"
    },
    {
      "children": [
        4,
        5,
        6,
        7
      ],
      "name": ""
    },
    {
      "mesh": 0,
      "name": ""
    },
    {
      "mesh": 1,
      "name": ""
    },
    {
      "mesh": 2,
      "name": ""
    },
    {
      "mesh": 3,
      "name": ""
    }
  ],
  "samplers": [
    {
      "magFilter": 9729,
      "minFilter": 9987,
      "wrapS": 10497,
      "wrapT": 10497
    }
  ],
  "scene": 0,
  "scenes": [
    {
      "name": "OSG_Scene",
      "nodes": [
        0
      ]
    }
  ],
  "textures": [
    {
      "sampler": 0,
      "source": 0
    },
    {
      "sampler": 0,
      "source": 1
    }
  ]
}

